<svg width="397" height="222" viewBox="0 0 397 222" fill="none" xmlns="http://www.w3.org/2000/svg">
<path d="M32.156 207.56V206.54H34.58V215H33.428V207.56H32.156ZM46.6542 210.764C46.6542 211.62 46.4822 212.368 46.1382 213.008C45.7942 213.64 45.2862 214.132 44.6142 214.484C43.9502 214.828 43.1502 215 42.2142 215H39.5262V206.54H42.2142C43.1502 206.54 43.9502 206.712 44.6142 207.056C45.2862 207.392 45.7942 207.88 46.1382 208.52C46.4822 209.152 46.6542 209.9 46.6542 210.764ZM42.1302 214.016C43.2342 214.016 44.0782 213.732 44.6622 213.164C45.2462 212.596 45.5382 211.796 45.5382 210.764C45.5382 209.732 45.2462 208.932 44.6622 208.364C44.0862 207.788 43.2422 207.5 42.1302 207.5H40.6182V214.016H42.1302ZM54.3077 211.34C54.3077 211.572 54.2917 211.772 54.2597 211.94H48.9917C49.0157 212.692 49.2277 213.256 49.6277 213.632C50.0357 214.008 50.5317 214.196 51.1157 214.196C51.6437 214.196 52.0837 214.064 52.4357 213.8C52.7957 213.528 53.0157 213.168 53.0957 212.72H54.2597C54.1797 213.176 53.9997 213.584 53.7197 213.944C53.4477 214.304 53.0917 214.584 52.6517 214.784C52.2117 214.984 51.7157 215.084 51.1637 215.084C50.5317 215.084 49.9717 214.948 49.4837 214.676C48.9957 214.404 48.6117 214.016 48.3317 213.512C48.0597 213 47.9237 212.4 47.9237 211.712C47.9237 211.024 48.0597 210.424 48.3317 209.912C48.6117 209.4 48.9957 209.008 49.4837 208.736C49.9717 208.464 50.5317 208.328 51.1637 208.328C51.8037 208.328 52.3597 208.464 52.8317 208.736C53.3117 209.008 53.6757 209.372 53.9237 209.828C54.1797 210.284 54.3077 210.788 54.3077 211.34ZM53.2037 211.412C53.2277 210.924 53.1477 210.516 52.9637 210.188C52.7797 209.86 52.5277 209.616 52.2077 209.456C51.8877 209.296 51.5397 209.216 51.1637 209.216C50.5637 209.216 50.0597 209.404 49.6517 209.78C49.2437 210.148 49.0237 210.692 48.9917 211.412H53.2037ZM58.772 208.328C59.612 208.328 60.308 208.552 60.86 209C61.412 209.448 61.752 210.048 61.88 210.8H60.728C60.648 210.328 60.428 209.96 60.068 209.696C59.716 209.424 59.276 209.288 58.748 209.288C58.364 209.288 58.012 209.376 57.692 209.552C57.38 209.728 57.128 210 56.936 210.368C56.744 210.728 56.648 211.176 56.648 211.712C56.648 212.248 56.744 212.7 56.936 213.068C57.128 213.428 57.38 213.696 57.692 213.872C58.012 214.048 58.364 214.136 58.748 214.136C59.276 214.136 59.716 214 60.068 213.728C60.428 213.456 60.648 213.084 60.728 212.612H61.88C61.752 213.372 61.412 213.976 60.86 214.424C60.308 214.864 59.612 215.084 58.772 215.084C58.14 215.084 57.58 214.948 57.092 214.676C56.604 214.404 56.22 214.016 55.94 213.512C55.668 213 55.532 212.4 55.532 211.712C55.532 211.024 55.668 210.424 55.94 209.912C56.22 209.4 56.604 209.008 57.092 208.736C57.58 208.464 58.14 208.328 58.772 208.328Z" fill="#4C5862"/>
<path d="M0.684 184.716C0.684 186.076 0.908 187.136 1.356 187.896C1.804 188.656 2.58 189.036 3.684 189.036C4.788 189.036 5.564 188.656 6.012 187.896C6.468 187.136 6.696 186.076 6.696 184.716C6.696 183.372 6.468 182.32 6.012 181.56C5.564 180.8 4.788 180.42 3.684 180.42C2.58 180.42 1.804 180.8 1.356 181.56C0.908 182.312 0.684 183.364 0.684 184.716ZM5.616 184.716C5.616 185.412 5.564 185.996 5.46 186.468C5.364 186.932 5.176 187.304 4.896 187.584C4.616 187.864 4.212 188.004 3.684 188.004C3.164 188.004 2.764 187.864 2.484 187.584C2.204 187.304 2.012 186.932 1.908 186.468C1.812 185.996 1.764 185.412 1.764 184.716C1.764 184.028 1.812 183.452 1.908 182.988C2.012 182.524 2.204 182.156 2.484 181.884C2.764 181.604 3.164 181.464 3.684 181.464C4.212 181.464 4.616 181.604 4.896 181.884C5.176 182.156 5.364 182.524 5.46 182.988C5.564 183.452 5.616 184.028 5.616 184.716Z" fill="#4C5862"/>
<path d="M6.384 137.404H2.04V140.236C2.24 139.964 2.528 139.748 2.904 139.588C3.28 139.428 3.692 139.348 4.14 139.348C4.74 139.348 5.236 139.476 5.628 139.732C6.028 139.98 6.32 140.312 6.504 140.728C6.696 141.136 6.792 141.592 6.792 142.096C6.792 142.968 6.548 143.68 6.06 144.232C5.572 144.784 4.856 145.06 3.912 145.06C3.064 145.06 2.372 144.832 1.836 144.376C1.3 143.912 1 143.292 0.936 142.516H2.016C2.104 143.012 2.308 143.4 2.628 143.68C2.956 143.952 3.368 144.088 3.864 144.088C4.48 144.088 4.944 143.904 5.256 143.536C5.568 143.168 5.724 142.684 5.724 142.084C5.724 141.5 5.564 141.044 5.244 140.716C4.924 140.388 4.472 140.224 3.888 140.224C3.472 140.224 3.108 140.316 2.796 140.5C2.484 140.676 2.248 140.916 2.088 141.22H1.032V136.432H6.384V137.404ZM8.19853 140.716C8.19853 142.076 8.42253 143.136 8.87053 143.896C9.31853 144.656 10.0945 145.036 11.1985 145.036C12.3025 145.036 13.0785 144.656 13.5265 143.896C13.9825 143.136 14.2105 142.076 14.2105 140.716C14.2105 139.372 13.9825 138.32 13.5265 137.56C13.0785 136.8 12.3025 136.42 11.1985 136.42C10.0945 136.42 9.31853 136.8 8.87053 137.56C8.42253 138.312 8.19853 139.364 8.19853 140.716ZM13.1305 140.716C13.1305 141.412 13.0785 141.996 12.9745 142.468C12.8785 142.932 12.6905 143.304 12.4105 143.584C12.1305 143.864 11.7265 144.004 11.1985 144.004C10.6785 144.004 10.2785 143.864 9.99853 143.584C9.71853 143.304 9.52653 142.932 9.42253 142.468C9.32653 141.996 9.27853 141.412 9.27853 140.716C9.27853 140.028 9.32653 139.452 9.42253 138.988C9.52653 138.524 9.71853 138.156 9.99853 137.884C10.2785 137.604 10.6785 137.464 11.1985 137.464C11.7265 137.464 12.1305 137.604 12.4105 137.884C12.6905 138.156 12.8785 138.524 12.9745 138.988C13.0785 139.452 13.1305 140.028 13.1305 140.716Z" fill="#4C5862"/>
<path d="M0.156 93.56V92.54H2.58V101H1.428V93.56H0.156ZM4.24931 96.716C4.24931 98.076 4.47331 99.136 4.92131 99.896C5.36931 100.656 6.14531 101.036 7.24931 101.036C8.35331 101.036 9.12931 100.656 9.57731 99.896C10.0333 99.136 10.2613 98.076 10.2613 96.716C10.2613 95.372 10.0333 94.32 9.57731 93.56C9.12931 92.8 8.35331 92.42 7.24931 92.42C6.14531 92.42 5.36931 92.8 4.92131 93.56C4.47331 94.312 4.24931 95.364 4.24931 96.716ZM9.18131 96.716C9.18131 97.412 9.12931 97.996 9.02531 98.468C8.92931 98.932 8.74131 99.304 8.46131 99.584C8.18131 99.864 7.77731 100.004 7.24931 100.004C6.72931 100.004 6.32931 99.864 6.04931 99.584C5.76931 99.304 5.57731 98.932 5.47331 98.468C5.37731 97.996 5.32931 97.412 5.32931 96.716C5.32931 96.028 5.37731 95.452 5.47331 94.988C5.57731 94.524 5.76931 94.156 6.04931 93.884C6.32931 93.604 6.72931 93.464 7.24931 93.464C7.77731 93.464 8.18131 93.604 8.46131 93.884C8.74131 94.156 8.92931 94.524 9.02531 94.988C9.12931 95.452 9.18131 96.028 9.18131 96.716ZM11.7404 96.716C11.7404 98.076 11.9644 99.136 12.4124 99.896C12.8604 100.656 13.6364 101.036 14.7404 101.036C15.8444 101.036 16.6204 100.656 17.0684 99.896C17.5244 99.136 17.7524 98.076 17.7524 96.716C17.7524 95.372 17.5244 94.32 17.0684 93.56C16.6204 92.8 15.8444 92.42 14.7404 92.42C13.6364 92.42 12.8604 92.8 12.4124 93.56C11.9644 94.312 11.7404 95.364 11.7404 96.716ZM16.6724 96.716C16.6724 97.412 16.6204 97.996 16.5164 98.468C16.4204 98.932 16.2324 99.304 15.9524 99.584C15.6724 99.864 15.2684 100.004 14.7404 100.004C14.2204 100.004 13.8204 99.864 13.5404 99.584C13.2604 99.304 13.0684 98.932 12.9644 98.468C12.8684 97.996 12.8204 97.412 12.8204 96.716C12.8204 96.028 12.8684 95.452 12.9644 94.988C13.0684 94.524 13.2604 94.156 13.5404 93.884C13.8204 93.604 14.2204 93.464 14.7404 93.464C15.2684 93.464 15.6724 93.604 15.9524 93.884C16.2324 94.156 16.4204 94.524 16.5164 94.988C16.6204 95.452 16.6724 96.028 16.6724 96.716Z" fill="#4C5862"/>
<path d="M0.156 49.56V48.54H2.58V57H1.428V49.56H0.156ZM9.94931 49.404H5.60531V52.236C5.80531 51.964 6.09331 51.748 6.46931 51.588C6.84531 51.428 7.25731 51.348 7.70531 51.348C8.30531 51.348 8.80131 51.476 9.19331 51.732C9.59331 51.98 9.88531 52.312 10.0693 52.728C10.2613 53.136 10.3573 53.592 10.3573 54.096C10.3573 54.968 10.1133 55.68 9.62531 56.232C9.13731 56.784 8.42131 57.06 7.47731 57.06C6.62931 57.06 5.93731 56.832 5.40131 56.376C4.86531 55.912 4.56531 55.292 4.50131 54.516H5.58131C5.66931 55.012 5.87331 55.4 6.19331 55.68C6.52131 55.952 6.93331 56.088 7.42931 56.088C8.04531 56.088 8.50931 55.904 8.82131 55.536C9.13331 55.168 9.28931 54.684 9.28931 54.084C9.28931 53.5 9.12931 53.044 8.80931 52.716C8.48931 52.388 8.03731 52.224 7.45331 52.224C7.03731 52.224 6.67331 52.316 6.36131 52.5C6.04931 52.676 5.81331 52.916 5.65331 53.22H4.59731V48.432H9.94931V49.404ZM11.7638 52.716C11.7638 54.076 11.9878 55.136 12.4358 55.896C12.8838 56.656 13.6598 57.036 14.7638 57.036C15.8678 57.036 16.6438 56.656 17.0918 55.896C17.5478 55.136 17.7758 54.076 17.7758 52.716C17.7758 51.372 17.5478 50.32 17.0918 49.56C16.6438 48.8 15.8678 48.42 14.7638 48.42C13.6598 48.42 12.8838 48.8 12.4358 49.56C11.9878 50.312 11.7638 51.364 11.7638 52.716ZM16.6958 52.716C16.6958 53.412 16.6438 53.996 16.5398 54.468C16.4438 54.932 16.2558 55.304 15.9758 55.584C15.6958 55.864 15.2918 56.004 14.7638 56.004C14.2438 56.004 13.8438 55.864 13.5638 55.584C13.2838 55.304 13.0918 54.932 12.9878 54.468C12.8918 53.996 12.8438 53.412 12.8438 52.716C12.8438 52.028 12.8918 51.452 12.9878 50.988C13.0918 50.524 13.2838 50.156 13.5638 49.884C13.8438 49.604 14.2438 49.464 14.7638 49.464C15.2918 49.464 15.6958 49.604 15.9758 49.884C16.2558 50.156 16.4438 50.524 16.5398 50.988C16.6438 51.452 16.6958 52.028 16.6958 52.716Z" fill="#4C5862"/>
<path d="M0.504 12.16C1.864 11.248 2.952 10.344 3.768 9.448C4.584 8.544 4.992 7.704 4.992 6.928C4.992 6.448 4.868 6.064 4.62 5.776C4.38 5.48 3.988 5.332 3.444 5.332C2.884 5.332 2.46 5.512 2.172 5.872C1.884 6.224 1.724 6.712 1.692 7.336H0.612C0.668 6.392 0.96 5.668 1.488 5.164C2.016 4.652 2.696 4.396 3.528 4.396C4.32 4.396 4.948 4.608 5.412 5.032C5.876 5.456 6.108 6.056 6.108 6.832C6.108 7.472 5.9 8.124 5.484 8.788C5.076 9.444 4.56 10.056 3.936 10.624C3.32 11.184 2.684 11.66 2.028 12.052H6.324V12.952H0.504V12.16ZM7.61259 8.716C7.61259 10.076 7.83659 11.136 8.28459 11.896C8.73259 12.656 9.50859 13.036 10.6126 13.036C11.7166 13.036 12.4926 12.656 12.9406 11.896C13.3966 11.136 13.6246 10.076 13.6246 8.716C13.6246 7.372 13.3966 6.32 12.9406 5.56C12.4926 4.8 11.7166 4.42 10.6126 4.42C9.50859 4.42 8.73259 4.8 8.28459 5.56C7.83659 6.312 7.61259 7.364 7.61259 8.716ZM12.5446 8.716C12.5446 9.412 12.4926 9.996 12.3886 10.468C12.2926 10.932 12.1046 11.304 11.8246 11.584C11.5446 11.864 11.1406 12.004 10.6126 12.004C10.0926 12.004 9.69259 11.864 9.41259 11.584C9.13259 11.304 8.94059 10.932 8.83659 10.468C8.74059 9.996 8.69259 9.412 8.69259 8.716C8.69259 8.028 8.74059 7.452 8.83659 6.988C8.94059 6.524 9.13259 6.156 9.41259 5.884C9.69259 5.604 10.0926 5.464 10.6126 5.464C11.1406 5.464 11.5446 5.604 11.8246 5.884C12.1046 6.156 12.2926 6.524 12.3886 6.988C12.4926 7.452 12.5446 8.028 12.5446 8.716ZM15.1037 8.716C15.1037 10.076 15.3277 11.136 15.7757 11.896C16.2237 12.656 16.9997 13.036 18.1037 13.036C19.2077 13.036 19.9837 12.656 20.4317 11.896C20.8877 11.136 21.1157 10.076 21.1157 8.716C21.1157 7.372 20.8877 6.32 20.4317 5.56C19.9837 4.8 19.2077 4.42 18.1037 4.42C16.9997 4.42 16.2237 4.8 15.7757 5.56C15.3277 6.312 15.1037 7.364 15.1037 8.716ZM20.0357 8.716C20.0357 9.412 19.9837 9.996 19.8797 10.468C19.7837 10.932 19.5957 11.304 19.3157 11.584C19.0357 11.864 18.6317 12.004 18.1037 12.004C17.5837 12.004 17.1837 11.864 16.9037 11.584C16.6237 11.304 16.4317 10.932 16.3277 10.468C16.2317 9.996 16.1837 9.412 16.1837 8.716C16.1837 8.028 16.2317 7.452 16.3277 6.988C16.4317 6.524 16.6237 6.156 16.9037 5.884C17.1837 5.604 17.5837 5.464 18.1037 5.464C18.6317 5.464 19.0357 5.604 19.3157 5.884C19.5957 6.156 19.7837 6.524 19.8797 6.988C19.9837 7.452 20.0357 8.028 20.0357 8.716Z" fill="#4C5862"/>
<path d="M360.588 206.312C361.132 206.312 361.6 206.408 361.992 206.6C362.384 206.792 362.68 207.056 362.88 207.392C363.08 207.728 363.18 208.108 363.18 208.532C363.18 209.06 363.024 209.504 362.712 209.864C362.408 210.224 361.96 210.44 361.368 210.512V210.584C361.984 210.744 362.464 210.992 362.808 211.328C363.16 211.664 363.336 212.128 363.336 212.72C363.336 213.416 363.104 213.984 362.64 214.424C362.176 214.864 361.508 215.084 360.636 215.084C359.764 215.084 359.056 214.86 358.512 214.412C357.976 213.956 357.66 213.292 357.564 212.42H358.644C358.716 212.948 358.916 213.368 359.244 213.68C359.58 213.992 360.032 214.148 360.6 214.148C361.136 214.148 361.548 214.012 361.836 213.74C362.124 213.46 362.268 213.1 362.268 212.66C362.268 212.132 362.06 211.732 361.644 211.46C361.236 211.18 360.652 211.04 359.892 211.04H359.604V210.128H359.892C361.364 210.128 362.1 209.636 362.1 208.652C362.1 208.22 361.964 207.876 361.692 207.62C361.42 207.364 361.044 207.236 360.564 207.236C360.084 207.236 359.68 207.376 359.352 207.656C359.024 207.928 358.832 208.332 358.776 208.868H357.708C357.764 208.068 358.04 207.444 358.536 206.996C359.04 206.54 359.724 206.312 360.588 206.312ZM364.342 207.56V206.54H366.766V215H365.614V207.56H364.342ZM378.841 210.764C378.841 211.62 378.669 212.368 378.325 213.008C377.981 213.64 377.473 214.132 376.801 214.484C376.137 214.828 375.337 215 374.401 215H371.713V206.54H374.401C375.337 206.54 376.137 206.712 376.801 207.056C377.473 207.392 377.981 207.88 378.325 208.52C378.669 209.152 378.841 209.9 378.841 210.764ZM374.317 214.016C375.421 214.016 376.265 213.732 376.849 213.164C377.433 212.596 377.725 211.796 377.725 210.764C377.725 209.732 377.433 208.932 376.849 208.364C376.273 207.788 375.429 207.5 374.317 207.5H372.805V214.016H374.317ZM386.494 211.34C386.494 211.572 386.478 211.772 386.446 211.94H381.178C381.202 212.692 381.414 213.256 381.814 213.632C382.222 214.008 382.718 214.196 383.302 214.196C383.83 214.196 384.27 214.064 384.622 213.8C384.982 213.528 385.202 213.168 385.282 212.72H386.446C386.366 213.176 386.186 213.584 385.906 213.944C385.634 214.304 385.278 214.584 384.838 214.784C384.398 214.984 383.902 215.084 383.35 215.084C382.718 215.084 382.158 214.948 381.67 214.676C381.182 214.404 380.798 214.016 380.518 213.512C380.246 213 380.11 212.4 380.11 211.712C380.11 211.024 380.246 210.424 380.518 209.912C380.798 209.4 381.182 209.008 381.67 208.736C382.158 208.464 382.718 208.328 383.35 208.328C383.99 208.328 384.546 208.464 385.018 208.736C385.498 209.008 385.862 209.372 386.11 209.828C386.366 210.284 386.494 210.788 386.494 211.34ZM385.39 211.412C385.414 210.924 385.334 210.516 385.15 210.188C384.966 209.86 384.714 209.616 384.394 209.456C384.074 209.296 383.726 209.216 383.35 209.216C382.75 209.216 382.246 209.404 381.838 209.78C381.43 210.148 381.21 210.692 381.178 211.412H385.39ZM390.958 208.328C391.798 208.328 392.494 208.552 393.046 209C393.598 209.448 393.938 210.048 394.066 210.8H392.914C392.834 210.328 392.614 209.96 392.254 209.696C391.902 209.424 391.462 209.288 390.934 209.288C390.55 209.288 390.198 209.376 389.878 209.552C389.566 209.728 389.314 210 389.122 210.368C388.93 210.728 388.834 211.176 388.834 211.712C388.834 212.248 388.93 212.7 389.122 213.068C389.314 213.428 389.566 213.696 389.878 213.872C390.198 214.048 390.55 214.136 390.934 214.136C391.462 214.136 391.902 214 392.254 213.728C392.614 213.456 392.834 213.084 392.914 212.612H394.066C393.938 213.372 393.598 213.976 393.046 214.424C392.494 214.864 391.798 215.084 390.958 215.084C390.326 215.084 389.766 214.948 389.278 214.676C388.79 214.404 388.406 214.016 388.126 213.512C387.854 213 387.718 212.4 387.718 211.712C387.718 211.024 387.854 210.424 388.126 209.912C388.406 209.4 388.79 209.008 389.278 208.736C389.766 208.464 390.326 208.328 390.958 208.328Z" fill="#4C5862"/>
<path d="M140.852 208.532C140.852 208.116 140.964 207.736 141.188 207.392C141.412 207.048 141.744 206.776 142.184 206.576C142.624 206.376 143.148 206.276 143.756 206.276C144.364 206.276 144.884 206.376 145.316 206.576C145.756 206.776 146.088 207.048 146.312 207.392C146.536 207.736 146.648 208.116 146.648 208.532C146.648 209.004 146.52 209.412 146.264 209.756C146.008 210.1 145.62 210.344 145.1 210.488C145.66 210.64 146.096 210.904 146.408 211.28C146.72 211.656 146.876 212.12 146.876 212.672C146.876 213.472 146.592 214.1 146.024 214.556C145.456 215.012 144.7 215.24 143.756 215.24C142.812 215.24 142.056 215.012 141.488 214.556C140.92 214.1 140.636 213.472 140.636 212.672C140.636 212.12 140.788 211.656 141.092 211.28C141.404 210.904 141.84 210.64 142.4 210.488C141.88 210.344 141.492 210.1 141.236 209.756C140.98 209.412 140.852 209.004 140.852 208.532ZM141.932 208.688C141.932 209.168 142.096 209.54 142.424 209.804C142.752 210.06 143.196 210.188 143.756 210.188C144.316 210.188 144.756 210.06 145.076 209.804C145.404 209.54 145.568 209.168 145.568 208.688C145.568 208.208 145.404 207.84 145.076 207.584C144.748 207.32 144.308 207.188 143.756 207.188C143.204 207.188 142.76 207.32 142.424 207.584C142.096 207.84 141.932 208.208 141.932 208.688ZM141.704 212.612C141.704 213.156 141.888 213.58 142.256 213.884C142.624 214.18 143.124 214.328 143.756 214.328C144.38 214.328 144.876 214.176 145.244 213.872C145.612 213.568 145.796 213.148 145.796 212.612C145.796 212.068 145.604 211.656 145.22 211.376C144.836 211.096 144.348 210.956 143.756 210.956C143.156 210.956 142.664 211.096 142.28 211.376C141.896 211.656 141.704 212.068 141.704 212.612ZM158.709 210.764C158.709 211.62 158.537 212.368 158.193 213.008C157.849 213.64 157.341 214.132 156.669 214.484C156.005 214.828 155.205 215 154.269 215H151.581V206.54H154.269C155.205 206.54 156.005 206.712 156.669 207.056C157.341 207.392 157.849 207.88 158.193 208.52C158.537 209.152 158.709 209.9 158.709 210.764ZM154.185 214.016C155.289 214.016 156.133 213.732 156.717 213.164C157.301 212.596 157.593 211.796 157.593 210.764C157.593 209.732 157.301 208.932 156.717 208.364C156.141 207.788 155.297 207.5 154.185 207.5H152.673V214.016H154.185ZM166.362 211.34C166.362 211.572 166.346 211.772 166.314 211.94H161.046C161.07 212.692 161.282 213.256 161.682 213.632C162.09 214.008 162.586 214.196 163.17 214.196C163.698 214.196 164.138 214.064 164.49 213.8C164.85 213.528 165.07 213.168 165.15 212.72H166.314C166.234 213.176 166.054 213.584 165.774 213.944C165.502 214.304 165.146 214.584 164.706 214.784C164.266 214.984 163.77 215.084 163.218 215.084C162.586 215.084 162.026 214.948 161.538 214.676C161.05 214.404 160.666 214.016 160.386 213.512C160.114 213 159.978 212.4 159.978 211.712C159.978 211.024 160.114 210.424 160.386 209.912C160.666 209.4 161.05 209.008 161.538 208.736C162.026 208.464 162.586 208.328 163.218 208.328C163.858 208.328 164.414 208.464 164.886 208.736C165.366 209.008 165.73 209.372 165.978 209.828C166.234 210.284 166.362 210.788 166.362 211.34ZM165.258 211.412C165.282 210.924 165.202 210.516 165.018 210.188C164.834 209.86 164.582 209.616 164.262 209.456C163.942 209.296 163.594 209.216 163.218 209.216C162.618 209.216 162.114 209.404 161.706 209.78C161.298 210.148 161.078 210.692 161.046 211.412H165.258ZM170.827 208.328C171.667 208.328 172.363 208.552 172.915 209C173.467 209.448 173.807 210.048 173.935 210.8H172.783C172.703 210.328 172.483 209.96 172.123 209.696C171.771 209.424 171.331 209.288 170.803 209.288C170.419 209.288 170.067 209.376 169.747 209.552C169.435 209.728 169.183 210 168.991 210.368C168.799 210.728 168.703 211.176 168.703 211.712C168.703 212.248 168.799 212.7 168.991 213.068C169.183 213.428 169.435 213.696 169.747 213.872C170.067 214.048 170.419 214.136 170.803 214.136C171.331 214.136 171.771 214 172.123 213.728C172.483 213.456 172.703 213.084 172.783 212.612H173.935C173.807 213.372 173.467 213.976 172.915 214.424C172.363 214.864 171.667 215.084 170.827 215.084C170.195 215.084 169.635 214.948 169.147 214.676C168.659 214.404 168.275 214.016 167.995 213.512C167.723 213 167.587 212.4 167.587 211.712C167.587 211.024 167.723 210.424 167.995 209.912C168.275 209.4 168.659 209.008 169.147 208.736C169.635 208.464 170.195 208.328 170.827 208.328Z" fill="#4C5862"/>
<path d="M249.156 207.56V206.54H251.58V215H250.428V207.56H249.156ZM258.025 208.796C257.961 208.292 257.789 207.904 257.509 207.632C257.237 207.352 256.857 207.212 256.369 207.212C255.689 207.212 255.173 207.476 254.821 208.004C254.477 208.532 254.305 209.368 254.305 210.512L254.317 210.956C254.437 210.476 254.713 210.096 255.145 209.816C255.577 209.528 256.085 209.384 256.669 209.384C257.509 209.384 258.165 209.636 258.637 210.14C259.117 210.644 259.357 211.348 259.357 212.252C259.357 212.78 259.253 213.26 259.045 213.692C258.837 214.116 258.517 214.456 258.085 214.712C257.661 214.96 257.133 215.084 256.501 215.084C255.293 215.084 254.461 214.704 254.005 213.944C253.557 213.184 253.333 212.152 253.333 210.848C253.333 209.344 253.573 208.216 254.053 207.464C254.541 206.704 255.333 206.324 256.429 206.324C257.237 206.324 257.857 206.552 258.289 207.008C258.729 207.464 258.989 208.06 259.069 208.796H258.025ZM254.437 212.072C254.437 212.656 254.605 213.148 254.941 213.548C255.285 213.94 255.797 214.136 256.477 214.136C257.037 214.136 257.485 213.972 257.821 213.644C258.157 213.308 258.325 212.84 258.325 212.24C258.325 211.592 258.157 211.1 257.821 210.764C257.485 210.42 257.021 210.248 256.429 210.248C256.093 210.248 255.773 210.316 255.469 210.452C255.165 210.588 254.917 210.796 254.725 211.076C254.533 211.348 254.437 211.68 254.437 212.072ZM271.227 210.764C271.227 211.62 271.055 212.368 270.711 213.008C270.367 213.64 269.859 214.132 269.187 214.484C268.523 214.828 267.723 215 266.787 215H264.099V206.54H266.787C267.723 206.54 268.523 206.712 269.187 207.056C269.859 207.392 270.367 207.88 270.711 208.52C271.055 209.152 271.227 209.9 271.227 210.764ZM266.703 214.016C267.807 214.016 268.651 213.732 269.235 213.164C269.819 212.596 270.111 211.796 270.111 210.764C270.111 209.732 269.819 208.932 269.235 208.364C268.659 207.788 267.815 207.5 266.703 207.5H265.191V214.016H266.703ZM278.881 211.34C278.881 211.572 278.865 211.772 278.833 211.94H273.565C273.589 212.692 273.801 213.256 274.201 213.632C274.609 214.008 275.105 214.196 275.689 214.196C276.217 214.196 276.657 214.064 277.009 213.8C277.369 213.528 277.589 213.168 277.669 212.72H278.833C278.753 213.176 278.573 213.584 278.293 213.944C278.021 214.304 277.665 214.584 277.225 214.784C276.785 214.984 276.289 215.084 275.737 215.084C275.105 215.084 274.545 214.948 274.057 214.676C273.569 214.404 273.185 214.016 272.905 213.512C272.633 213 272.497 212.4 272.497 211.712C272.497 211.024 272.633 210.424 272.905 209.912C273.185 209.4 273.569 209.008 274.057 208.736C274.545 208.464 275.105 208.328 275.737 208.328C276.377 208.328 276.933 208.464 277.405 208.736C277.885 209.008 278.249 209.372 278.497 209.828C278.753 210.284 278.881 210.788 278.881 211.34ZM277.777 211.412C277.801 210.924 277.721 210.516 277.537 210.188C277.353 209.86 277.101 209.616 276.781 209.456C276.461 209.296 276.113 209.216 275.737 209.216C275.137 209.216 274.633 209.404 274.225 209.78C273.817 210.148 273.597 210.692 273.565 211.412H277.777ZM283.345 208.328C284.185 208.328 284.881 208.552 285.433 209C285.985 209.448 286.325 210.048 286.453 210.8H285.301C285.221 210.328 285.001 209.96 284.641 209.696C284.289 209.424 283.849 209.288 283.321 209.288C282.937 209.288 282.585 209.376 282.265 209.552C281.953 209.728 281.701 210 281.509 210.368C281.317 210.728 281.221 211.176 281.221 211.712C281.221 212.248 281.317 212.7 281.509 213.068C281.701 213.428 281.953 213.696 282.265 213.872C282.585 214.048 282.937 214.136 283.321 214.136C283.849 214.136 284.289 214 284.641 213.728C285.001 213.456 285.221 213.084 285.301 212.612H286.453C286.325 213.372 285.985 213.976 285.433 214.424C284.881 214.864 284.185 215.084 283.345 215.084C282.713 215.084 282.153 214.948 281.665 214.676C281.177 214.404 280.793 214.016 280.513 213.512C280.241 213 280.105 212.4 280.105 211.712C280.105 211.024 280.241 210.424 280.513 209.912C280.793 209.4 281.177 209.008 281.665 208.736C282.153 208.464 282.713 208.328 283.345 208.328Z" fill="#4C5862"/>
<line x1="305" y1="10" x2="305" y2="185" stroke="#C2CFE0"/>
<line x1="32" y1="185.5" x2="397" y2="185.5" stroke="#D3D8DD" stroke-miterlimit="16" stroke-dasharray="8 8"/>
<line x1="32" y1="141.5" x2="397" y2="141.5" stroke="#D3D8DD" stroke-miterlimit="16" stroke-dasharray="8 8"/>
<line x1="32" y1="97.5" x2="397" y2="97.5" stroke="#D3D8DD" stroke-miterlimit="16" stroke-dasharray="8 8"/>
<line x1="32" y1="53.5" x2="397" y2="53.5" stroke="#D3D8DD" stroke-miterlimit="16" stroke-dasharray="8 8"/>
<line x1="32" y1="9.5" x2="397" y2="9.5" stroke="#D3D8DD" stroke-miterlimit="16" stroke-dasharray="8 8"/>
<mask id="mask0_1152_427" style="mask-type:alpha" maskUnits="userSpaceOnUse" x="32" y="10" width="365" height="176">
<rect x="32" y="10" width="365" height="176" fill="#C4C4C4"/>
</mask>
<g mask="url(#mask0_1152_427)">
<path opacity="0.2" d="M91.7189 98.988C62.1852 98.1182 34.1006 138.967 26.5 156V187H418.5L405 52.4999C375 59.9999 343 44.9999 333.852 44.6264C313.222 44.6264 282.458 87.3902 268.704 109.859C257.412 129.864 243.007 134.141 237.216 133.778C210.288 134.648 189.803 89.9272 182.926 67.4582C176.846 42.2344 170 37.0161 166.639 37.0161C161 36.9999 152.524 44.4092 143.837 69.6326C135.151 94.856 121.397 101.887 115.607 102.249C107.507 102.756 97.8718 98.9878 91.7189 98.988Z" fill="url(#paint0_linear_1152_427)"/>
<path d="M91.7189 98.988L91.6895 99.9875C91.6993 99.9878 91.7091 99.988 91.719 99.988L91.7189 98.988ZM115.607 102.249L115.544 101.251L115.607 102.249ZM166.639 37.0161L166.636 38.0161H166.639L166.639 37.0161ZM182.926 67.4582L181.954 67.6925C181.959 67.7121 181.964 67.7316 181.97 67.7509L182.926 67.4582ZM237.216 133.778L237.278 132.78C237.247 132.778 237.215 132.778 237.184 132.779L237.216 133.778ZM268.704 109.859L267.851 109.337C267.845 109.347 267.839 109.358 267.833 109.368L268.704 109.859ZM333.852 44.6264L333.893 43.6272C333.879 43.6266 333.866 43.6264 333.852 43.6264V44.6264ZM27.4132 156.407C31.167 147.995 40.0243 133.62 51.6083 121.47C63.2281 109.283 77.3701 99.5658 91.6895 99.9875L91.7484 97.9884C76.534 97.5403 61.8669 107.812 50.1608 120.09C38.4189 132.406 29.4336 146.972 25.5868 155.592L27.4132 156.407ZM91.719 99.988C94.6616 99.9879 98.4664 100.894 102.727 101.787C106.911 102.665 111.467 103.51 115.669 103.247L115.544 101.251C111.646 101.495 107.335 100.71 103.138 99.8299C99.0182 98.966 94.9291 97.9879 91.7189 97.988L91.719 99.988ZM115.669 103.247C122.019 102.85 136.024 95.3906 144.783 69.9582L142.892 69.307C134.277 94.3215 120.776 100.924 115.544 101.251L115.669 103.247ZM144.783 69.9582C149.108 57.3989 153.355 49.3562 157.169 44.4752C161 39.5722 164.27 38.0093 166.636 38.0161L166.642 36.0161C163.369 36.0067 159.581 38.1403 155.593 43.2438C151.588 48.3693 147.253 56.643 142.892 69.307L144.783 69.9582ZM166.639 38.0161C167.804 38.0161 170.094 38.9594 172.924 43.3224C175.728 47.6453 178.926 55.1328 181.954 67.6925L183.898 67.2239C180.845 54.5598 177.581 46.8262 174.602 42.234C171.649 37.682 168.835 36.0161 166.639 36.0161L166.639 38.0161ZM181.97 67.7509C185.428 79.0504 192.305 95.9447 201.722 109.929C206.431 116.921 211.802 123.227 217.735 127.738C223.672 132.252 230.221 135.005 237.248 134.778L237.184 132.779C230.748 132.987 224.638 130.475 218.945 126.146C213.248 121.814 208.019 115.699 203.381 108.812C194.104 95.0356 187.301 78.3351 183.882 67.1655L181.97 67.7509ZM237.154 134.776C243.408 135.168 258.138 130.613 269.575 110.351L267.833 109.368C256.686 129.116 242.606 133.113 237.278 132.78L237.154 134.776ZM269.557 110.381C276.415 99.1778 287.51 82.9222 299.447 69.481C305.417 62.7589 311.572 56.7695 317.491 52.4683C323.436 48.1487 329.013 45.6264 333.852 45.6264V43.6264C328.376 43.6264 322.372 46.4495 316.316 50.8503C310.234 55.2695 303.971 61.3753 297.952 68.1529C285.911 81.7109 274.747 98.0718 267.851 109.337L269.557 110.381ZM333.811 45.6255C335.951 45.7129 339.528 46.6742 344.338 48.0313C349.085 49.3707 354.91 51.055 361.39 52.492C374.341 55.364 390.021 57.2755 405.243 53.47L404.757 51.5297C389.979 55.2243 374.659 53.3858 361.823 50.5394C355.41 49.1172 349.644 47.4502 344.881 46.1064C340.181 44.7803 336.327 43.7266 333.893 43.6272L333.811 45.6255Z" fill="#109CF1"/>
<circle cx="305" cy="62" r="4" fill="white" stroke="#109CF1" stroke-width="2"/>
</g>
<rect opacity="0.6" x="318" y="50" width="46" height="24" rx="12" fill="#192A3E"/>
<path d="M332.374 59.411V58.234H334.86V66H333.54V59.411H332.374ZM336.099 64.328V63.272L339.96 58.168H341.302V63.228H342.391V64.328H341.302V66H340.037V64.328H336.099ZM340.125 59.664L337.397 63.228H340.125V59.664ZM347.635 60.324C347.503 59.4587 347.052 59.026 346.282 59.026C345.725 59.026 345.307 59.2497 345.028 59.697C344.749 60.137 344.61 60.83 344.61 61.776L344.621 62.15C344.731 61.754 344.969 61.4387 345.336 61.204C345.703 60.9693 346.135 60.852 346.634 60.852C347.397 60.852 347.994 61.0793 348.427 61.534C348.86 61.9887 349.076 62.6303 349.076 63.459C349.076 63.9577 348.977 64.405 348.779 64.801C348.581 65.1897 348.284 65.5013 347.888 65.736C347.492 65.9633 347.004 66.077 346.425 66.077C345.303 66.077 344.533 65.7287 344.115 65.032C343.697 64.3353 343.488 63.3783 343.488 62.161C343.488 60.7677 343.712 59.7263 344.159 59.037C344.606 58.3477 345.34 58.003 346.359 58.003C347.122 58.003 347.705 58.2193 348.108 58.652C348.519 59.0847 348.757 59.642 348.823 60.324H347.635ZM344.731 63.316C344.731 63.7927 344.87 64.1923 345.149 64.515C345.428 64.8303 345.838 64.988 346.381 64.988C346.843 64.988 347.21 64.8523 347.481 64.581C347.76 64.3097 347.899 63.932 347.899 63.448C347.899 62.9273 347.76 62.5277 347.481 62.249C347.202 61.9703 346.825 61.831 346.348 61.831C345.915 61.831 345.538 61.9593 345.215 62.216C344.892 62.4727 344.731 62.8393 344.731 63.316Z" fill="white"/>
<defs>
<linearGradient id="paint0_linear_1152_427" x1="222.5" y1="37.0161" x2="222" y2="187" gradientUnits="userSpaceOnUse">
<stop stop-color="#109CF1"/>
<stop offset="1" stop-color="#109CF1" stop-opacity="0"/>
</linearGradient>
</defs>
</svg>
