<svg width="232" height="232" viewBox="0 0 232 232" fill="none" xmlns="http://www.w3.org/2000/svg">
<circle cx="116" cy="116" r="112" stroke="#FFB946" stroke-width="8"/>
<path d="M83.1792 102.64C82.7685 100.923 82.0219 99.6347 80.9392 98.776C79.8565 97.9173 78.3445 97.488 76.4032 97.488C73.4539 97.488 71.2512 98.6267 69.7952 100.904C68.3392 103.144 67.5739 106.877 67.4992 112.104C68.4699 110.461 69.8885 109.192 71.7552 108.296C73.6219 107.4 75.6379 106.952 77.8032 106.952C80.2672 106.952 82.4325 107.493 84.2992 108.576C86.2032 109.621 87.6779 111.152 88.7232 113.168C89.8059 115.184 90.3472 117.592 90.3472 120.392C90.3472 123.005 89.8245 125.339 88.7792 127.392C87.7712 129.445 86.2592 131.069 84.2432 132.264C82.2272 133.421 79.8005 134 76.9632 134C73.1179 134 70.0939 133.16 67.8912 131.48C65.7259 129.763 64.1952 127.355 63.2992 124.256C62.4405 121.157 62.0112 117.293 62.0112 112.664C62.0112 99 66.8272 92.168 76.4592 92.168C80.1925 92.168 83.1232 93.176 85.2512 95.192C87.4165 97.208 88.6859 99.6907 89.0592 102.64H83.1792ZM76.4032 112.328C74.1259 112.328 72.1845 113.019 70.5792 114.4C69.0112 115.744 68.2272 117.704 68.2272 120.28C68.2272 122.856 68.9552 124.909 70.4112 126.44C71.9045 127.933 73.9765 128.68 76.6272 128.68C78.9792 128.68 80.8272 127.952 82.1712 126.496C83.5525 125.04 84.2432 123.099 84.2432 120.672C84.2432 118.133 83.5712 116.117 82.2272 114.624C80.9205 113.093 78.9792 112.328 76.4032 112.328ZM97.1569 113.056C97.1569 106.597 98.2395 101.557 100.405 97.936C102.608 94.2773 106.378 92.448 111.717 92.448C117.056 92.448 120.808 94.2773 122.973 97.936C125.176 101.557 126.277 106.597 126.277 113.056C126.277 119.589 125.176 124.704 122.973 128.4C120.808 132.059 117.056 133.888 111.717 133.888C106.378 133.888 102.608 132.059 100.405 128.4C98.2395 124.704 97.1569 119.589 97.1569 113.056ZM120.005 113.056C120.005 110.032 119.8 107.475 119.389 105.384C119.016 103.293 118.232 101.595 117.037 100.288C115.842 98.944 114.069 98.272 111.717 98.272C109.365 98.272 107.592 98.944 106.397 100.288C105.202 101.595 104.4 103.293 103.989 105.384C103.616 107.475 103.429 110.032 103.429 113.056C103.429 116.192 103.616 118.824 103.989 120.952C104.362 123.08 105.146 124.797 106.341 126.104C107.573 127.411 109.365 128.064 111.717 128.064C114.069 128.064 115.842 127.411 117.037 126.104C118.269 124.797 119.072 123.08 119.445 120.952C119.818 118.824 120.005 116.192 120.005 113.056ZM132.024 103.032C132.024 100.307 132.808 98.1787 134.376 96.648C135.981 95.08 138.035 94.296 140.536 94.296C143.037 94.296 145.072 95.08 146.64 96.648C148.245 98.1787 149.048 100.307 149.048 103.032C149.048 105.757 148.245 107.904 146.64 109.472C145.072 111.04 143.037 111.824 140.536 111.824C138.035 111.824 135.981 111.04 134.376 109.472C132.808 107.904 132.024 105.757 132.024 103.032ZM166.184 95.024L143.84 134H137.568L159.912 95.024H166.184ZM140.536 98.16C138.184 98.16 137.008 99.784 137.008 103.032C137.008 106.317 138.184 107.96 140.536 107.96C141.656 107.96 142.515 107.568 143.112 106.784C143.747 105.963 144.064 104.712 144.064 103.032C144.064 99.784 142.888 98.16 140.536 98.16ZM154.816 125.936C154.816 123.211 155.6 121.083 157.168 119.552C158.773 117.984 160.827 117.2 163.328 117.2C165.792 117.2 167.808 117.984 169.376 119.552C170.981 121.083 171.784 123.211 171.784 125.936C171.784 128.661 170.981 130.808 169.376 132.376C167.808 133.944 165.792 134.728 163.328 134.728C160.827 134.728 158.773 133.944 157.168 132.376C155.6 130.808 154.816 128.661 154.816 125.936ZM163.272 121.064C160.92 121.064 159.744 122.688 159.744 125.936C159.744 129.184 160.92 130.808 163.272 130.808C165.624 130.808 166.8 129.184 166.8 125.936C166.8 122.688 165.624 121.064 163.272 121.064Z" fill="#2ED47A"/>
<path d="M228 116C228 95.3333 222.282 75.0695 211.478 57.4514C200.674 39.8334 185.207 25.5481 166.787 16.1767C148.367 6.80528 127.713 2.71318 107.112 4.35329C86.5101 5.99341 66.764 13.3018 50.0589 25.4695C33.3538 37.6373 20.3411 54.1899 12.461 73.2954C4.58097 92.4009 2.14085 113.314 5.41074 133.721C8.68063 154.127 17.533 173.231 30.9881 188.918C44.4432 204.604 61.9763 216.262 81.6469 222.601" stroke="#F7685B" stroke-width="8" stroke-linecap="round"/>
<path d="M228 116C228 98.3253 223.817 80.9014 215.793 65.1531C207.769 49.4047 196.131 35.7791 181.832 25.3901C167.533 15.0011 150.978 8.14386 133.521 5.37892C116.064 2.61398 98.1998 4.01988 81.3901 9.48169C64.5804 14.9435 49.302 24.3061 36.804 36.8041C24.3061 49.302 14.9435 64.5804 9.48168 81.3901C4.01988 98.1998 2.61398 116.064 5.37892 133.521C8.14386 150.978 15.0012 167.533 25.3901 181.832" stroke="#2ED47A" stroke-width="8" stroke-linecap="round" stroke-linejoin="round"/>
</svg>
